<svg width="24" height="24" xmlns="http://www.w3.org/2000/svg">

 <g>
  <title>Layer 1</title>
  <path fill="#ffffff" id="svg_1" d="m13.07,10.41a5,5 0 0 0 0,-5.82a3.39,3.39 0 0 1 1.93,-0.59a3.5,3.5 0 0 1 0,7a3.39,3.39 0 0 1 -1.93,-0.59m-7.57,-2.91a3.5,3.5 0 1 1 3.5,3.5a3.5,3.5 0 0 1 -3.5,-3.5m2,0a1.5,1.5 0 1 0 1.5,-1.5a1.5,1.5 0 0 0 -1.5,1.5m8.5,9.5l0,2l-14,0l0,-2s0,-4 7,-4s7,4 7,4m-2,0c-0.14,-0.78 -1.33,-2 -5,-2s-4.93,1.31 -5,2m11.95,-4a5.32,5.32 0 0 1 2.05,4l0,2l4,0l0,-2s0,-3.63 -6.06,-4l0.01,0z"/>
 </g>
</svg>