<svg width="24" height="24" xmlns="http://www.w3.org/2000/svg">

 <g>
  <title>Layer 1</title>
  <path fill="#ffffff" id="svg_1" d="m22,3l-20,0c-1.09,0.04 -1.96,0.91 -2,2l0,14c0.04,1.09 0.91,1.96 2,2l20,0c1.09,-0.04 1.96,-0.91 2,-2l0,-14c-0.04,-1.09 -0.91,-1.96 -2,-2m0,16l-20,0l0,-14l20,0l0,14m-8,-2l0,-1.25c0,-1.66 -3.34,-2.5 -5,-2.5c-1.66,0 -5,0.84 -5,2.5l0,1.25l10,0m-5,-10a2.5,2.5 0 0 0 -2.5,2.5a2.5,2.5 0 0 0 2.5,2.5a2.5,2.5 0 0 0 2.5,-2.5a2.5,2.5 0 0 0 -2.5,-2.5m5,0l0,1l6,0l0,-1l-6,0m0,2l0,1l6,0l0,-1l-6,0m0,2l0,1l4,0l0,-1l-4,0"/>
 </g>
</svg>